<?xml version="1.0" standalone="no"?>
<svg xmlns:xlink="http://www.w3.org/1999/xlink" id="wave" style="transform:rotate(180deg); transition: 0.3s" viewBox="0 0 1440 120" version="1.1" xmlns="http://www.w3.org/2000/svg"><defs><linearGradient id="sw-gradient-0" x1="0" x2="0" y1="1" y2="0"><stop stop-color="rgba(24.636, 50.409, 38.186, 1)" offset="0%"/><stop stop-color="rgba(84.775, 196.124, 139.546, 1)" offset="100%"/></linearGradient></defs><path style="transform:translate(0, 0px); opacity:1" fill="url(#sw-gradient-0)" d="M0,12L30,18C60,24,120,36,180,46C240,56,300,64,360,60C420,56,480,40,540,44C600,48,660,72,720,80C780,88,840,80,900,82C960,84,1020,96,1080,98C1140,100,1200,92,1260,82C1320,72,1380,60,1440,48C1500,36,1560,24,1620,30C1680,36,1740,60,1800,72C1860,84,1920,84,1980,70C2040,56,2100,28,2160,24C2220,20,2280,40,2340,46C2400,52,2460,44,2520,40C2580,36,2640,36,2700,38C2760,40,2820,44,2880,52C2940,60,3000,72,3060,70C3120,68,3180,52,3240,46C3300,40,3360,44,3420,44C3480,44,3540,40,3600,42C3660,44,3720,52,3780,62C3840,72,3900,84,3960,86C4020,88,4080,80,4140,68C4200,56,4260,40,4290,32L4320,24L4320,120L4290,120C4260,120,4200,120,4140,120C4080,120,4020,120,3960,120C3900,120,3840,120,3780,120C3720,120,3660,120,3600,120C3540,120,3480,120,3420,120C3360,120,3300,120,3240,120C3180,120,3120,120,3060,120C3000,120,2940,120,2880,120C2820,120,2760,120,2700,120C2640,120,2580,120,2520,120C2460,120,2400,120,2340,120C2280,120,2220,120,2160,120C2100,120,2040,120,1980,120C1920,120,1860,120,1800,120C1740,120,1680,120,1620,120C1560,120,1500,120,1440,120C1380,120,1320,120,1260,120C1200,120,1140,120,1080,120C1020,120,960,120,900,120C840,120,780,120,720,120C660,120,600,120,540,120C480,120,420,120,360,120C300,120,240,120,180,120C120,120,60,120,30,120L0,120Z"/><defs><linearGradient id="sw-gradient-1" x1="0" x2="0" y1="1" y2="0"><stop stop-color="rgba(68.846, 134.651, 87.839, 1)" offset="0%"/><stop stop-color="rgba(80.507, 193.847, 109.382, 1)" offset="100%"/></linearGradient></defs><path style="transform:translate(0, 50px); opacity:0.9" fill="url(#sw-gradient-1)" d="M0,96L30,84C60,72,120,48,180,40C240,32,300,40,360,44C420,48,480,48,540,52C600,56,660,64,720,66C780,68,840,64,900,64C960,64,1020,68,1080,60C1140,52,1200,32,1260,26C1320,20,1380,28,1440,34C1500,40,1560,44,1620,52C1680,60,1740,72,1800,78C1860,84,1920,84,1980,78C2040,72,2100,60,2160,54C2220,48,2280,48,2340,42C2400,36,2460,24,2520,30C2580,36,2640,60,2700,62C2760,64,2820,44,2880,46C2940,48,3000,72,3060,78C3120,84,3180,72,3240,58C3300,44,3360,28,3420,36C3480,44,3540,76,3600,86C3660,96,3720,84,3780,84C3840,84,3900,96,3960,86C4020,76,4080,44,4140,36C4200,28,4260,44,4290,52L4320,60L4320,120L4290,120C4260,120,4200,120,4140,120C4080,120,4020,120,3960,120C3900,120,3840,120,3780,120C3720,120,3660,120,3600,120C3540,120,3480,120,3420,120C3360,120,3300,120,3240,120C3180,120,3120,120,3060,120C3000,120,2940,120,2880,120C2820,120,2760,120,2700,120C2640,120,2580,120,2520,120C2460,120,2400,120,2340,120C2280,120,2220,120,2160,120C2100,120,2040,120,1980,120C1920,120,1860,120,1800,120C1740,120,1680,120,1620,120C1560,120,1500,120,1440,120C1380,120,1320,120,1260,120C1200,120,1140,120,1080,120C1020,120,960,120,900,120C840,120,780,120,720,120C660,120,600,120,540,120C480,120,420,120,360,120C300,120,240,120,180,120C120,120,60,120,30,120L0,120Z"/><defs><linearGradient id="sw-gradient-2" x1="0" x2="0" y1="1" y2="0"><stop stop-color="rgba(139.239, 209.784, 171.55, 1)" offset="0%"/><stop stop-color="rgba(103.847, 161.972, 130.469, 0.39)" offset="100%"/></linearGradient></defs><path style="transform:translate(0, 100px); opacity:0.8" fill="url(#sw-gradient-2)" d="M0,96L30,98C60,100,120,104,180,94C240,84,300,60,360,52C420,44,480,52,540,60C600,68,660,76,720,68C780,60,840,36,900,34C960,32,1020,52,1080,56C1140,60,1200,48,1260,36C1320,24,1380,12,1440,8C1500,4,1560,8,1620,20C1680,32,1740,52,1800,64C1860,76,1920,80,1980,82C2040,84,2100,84,2160,82C2220,80,2280,76,2340,68C2400,60,2460,48,2520,44C2580,40,2640,44,2700,54C2760,64,2820,80,2880,78C2940,76,3000,56,3060,46C3120,36,3180,36,3240,44C3300,52,3360,68,3420,72C3480,76,3540,68,3600,68C3660,68,3720,76,3780,76C3840,76,3900,68,3960,66C4020,64,4080,68,4140,76C4200,84,4260,96,4290,102L4320,108L4320,120L4290,120C4260,120,4200,120,4140,120C4080,120,4020,120,3960,120C3900,120,3840,120,3780,120C3720,120,3660,120,3600,120C3540,120,3480,120,3420,120C3360,120,3300,120,3240,120C3180,120,3120,120,3060,120C3000,120,2940,120,2880,120C2820,120,2760,120,2700,120C2640,120,2580,120,2520,120C2460,120,2400,120,2340,120C2280,120,2220,120,2160,120C2100,120,2040,120,1980,120C1920,120,1860,120,1800,120C1740,120,1680,120,1620,120C1560,120,1500,120,1440,120C1380,120,1320,120,1260,120C1200,120,1140,120,1080,120C1020,120,960,120,900,120C840,120,780,120,720,120C660,120,600,120,540,120C480,120,420,120,360,120C300,120,240,120,180,120C120,120,60,120,30,120L0,120Z"/><defs><linearGradient id="sw-gradient-3" x1="0" x2="0" y1="1" y2="0"><stop stop-color="rgba(90.131, 134.651, 112.03, 1)" offset="0%"/><stop stop-color="rgba(143.133, 187.017, 161.746, 1)" offset="100%"/></linearGradient></defs><path style="transform:translate(0, 150px); opacity:0.7" fill="url(#sw-gradient-3)" d="M0,72L30,76C60,80,120,88,180,76C240,64,300,32,360,16C420,0,480,0,540,18C600,36,660,72,720,74C780,76,840,44,900,32C960,20,1020,28,1080,38C1140,48,1200,60,1260,64C1320,68,1380,64,1440,58C1500,52,1560,44,1620,44C1680,44,1740,52,1800,50C1860,48,1920,36,1980,30C2040,24,2100,24,2160,36C2220,48,2280,72,2340,76C2400,80,2460,64,2520,52C2580,40,2640,32,2700,26C2760,20,2820,16,2880,24C2940,32,3000,52,3060,54C3120,56,3180,40,3240,38C3300,36,3360,48,3420,52C3480,56,3540,52,3600,54C3660,56,3720,64,3780,56C3840,48,3900,24,3960,22C4020,20,4080,40,4140,58C4200,76,4260,92,4290,100L4320,108L4320,120L4290,120C4260,120,4200,120,4140,120C4080,120,4020,120,3960,120C3900,120,3840,120,3780,120C3720,120,3660,120,3600,120C3540,120,3480,120,3420,120C3360,120,3300,120,3240,120C3180,120,3120,120,3060,120C3000,120,2940,120,2880,120C2820,120,2760,120,2700,120C2640,120,2580,120,2520,120C2460,120,2400,120,2340,120C2280,120,2220,120,2160,120C2100,120,2040,120,1980,120C1920,120,1860,120,1800,120C1740,120,1680,120,1620,120C1560,120,1500,120,1440,120C1380,120,1320,120,1260,120C1200,120,1140,120,1080,120C1020,120,960,120,900,120C840,120,780,120,720,120C660,120,600,120,540,120C480,120,420,120,360,120C300,120,240,120,180,120C120,120,60,120,30,120L0,120Z"/></svg>